<mxfile host="app.diagrams.net" modified="2023-10-24T13:07:30.599Z" agent="Mozilla/5.0 (Windows NT 10.0; Win64; x64) AppleWebKit/537.36 (KHTML, like Gecko) Chrome/118.0.0.0 Safari/537.36" version="22.0.6" etag="0xWAFhIUzSl3QTwkyRJt" type="github">
  <diagram name="Page-1" id="A5_WMkQf7D5Y6r6UvgwZ">
    <mxGraphModel>
      <root>
        <mxCell id="0" />
        <mxCell id="1" parent="0" />
      </root>
    </mxGraphModel>
  </diagram>
</mxfile>
